<svg width="20" height="20" viewBox="0 0 20 20" fill="none" xmlns="http://www.w3.org/2000/svg">
<path d="M6.99219 1.34112C6.77735 1.12628 6.50391 1.00909 6.18164 1.00909C5.53711 1.00909 5.01953 1.51691 5.01953 2.16144C5.01953 2.4837 5.15625 2.77667 5.38086 3.00128L12.2168 9.68097L5.38086 16.3411C5.15625 16.5657 5.01953 16.8685 5.01953 17.181C5.01953 17.8255 5.53711 18.3333 6.18164 18.3333C6.50391 18.3333 6.77734 18.2161 6.99219 18.0013L14.5898 10.5794C14.8633 10.3255 14.9902 10.013 15 9.6712C15 9.32941 14.8633 9.03644 14.5898 8.77277L6.99219 1.34112Z" fill="white"/>
</svg>
